<svg width="25" height="25" viewBox="0 0 25 25" fill="none" xmlns="http://www.w3.org/2000/svg">
<path fill-rule="evenodd" clip-rule="evenodd" d="M3.70703 14.4508C3.70703 12.3797 5.38596 10.7008 7.45703 10.7008H16.657C18.7281 10.7008 20.407 12.3797 20.407 14.4508V16.7841C20.407 20.1439 17.6834 22.8675 14.3237 22.8675H9.79036C6.43063 22.8675 3.70703 20.1439 3.70703 16.7841V14.4508ZM7.45703 12.2008C6.21439 12.2008 5.20703 13.2082 5.20703 14.4508V16.7841C5.20703 19.3154 7.25906 21.3675 9.79036 21.3675H14.3237C16.855 21.3675 18.907 19.3154 18.907 16.7841V14.4508C18.907 13.2082 17.8997 12.2008 16.657 12.2008H7.45703Z" fill="#FE5656"/>
<path fill-rule="evenodd" clip-rule="evenodd" d="M12.0567 19.0176C11.5597 19.0176 11.1567 18.6146 11.1567 18.1176L11.1567 15.4509C11.1567 14.9539 11.5597 14.5509 12.0567 14.5509C12.5538 14.5509 12.9567 14.9539 12.9567 15.4509L12.9567 18.1176C12.9567 18.6146 12.5538 19.0176 12.0567 19.0176Z" fill="#FE5656"/>
<path fill-rule="evenodd" clip-rule="evenodd" d="M10.0283 3.7133C9.52081 4.14584 9.15693 4.80437 9.15693 5.76132V10.7841C9.15693 11.2811 8.75399 11.6841 8.25693 11.6841C7.75988 11.6841 7.35693 11.2811 7.35693 10.7841V5.76132C7.35693 4.28895 7.94306 3.12552 8.86061 2.34342C9.75887 1.57776 10.9251 1.21739 12.0569 1.21741C13.1888 1.21742 14.355 1.57781 15.2533 2.34348C16.1708 3.12558 16.7569 4.28901 16.7569 5.76135V10.7841C16.7569 11.2811 16.354 11.6841 15.8569 11.6841C15.3599 11.6841 14.9569 11.2811 14.9569 10.7841V5.76135C14.9569 4.80444 14.5931 4.14591 14.0856 3.71336C13.5589 3.26437 12.8251 3.01742 12.0569 3.01741C11.2888 3.0174 10.555 3.26433 10.0283 3.7133Z" fill="#FE5656"/>
</svg>
