<svg width="25" height="25" viewBox="0 0 25 25" fill="none" xmlns="http://www.w3.org/2000/svg">
<path fill-rule="evenodd" clip-rule="evenodd" d="M3.70703 14.4509C3.70703 12.3799 5.38596 10.7009 7.45703 10.7009H16.657C18.7281 10.7009 20.407 12.3799 20.407 14.4509V16.7843C20.407 20.144 17.6834 22.8676 14.3237 22.8676H9.79036C6.43063 22.8676 3.70703 20.144 3.70703 16.7843V14.4509ZM7.45703 12.2009C6.21439 12.2009 5.20703 13.2083 5.20703 14.4509V16.7843C5.20703 19.3156 7.25906 21.3676 9.79036 21.3676H14.3237C16.855 21.3676 18.907 19.3156 18.907 16.7843V14.4509C18.907 13.2083 17.8997 12.2009 16.657 12.2009H7.45703Z" fill="black" fill-opacity="0.2"/>
<path fill-rule="evenodd" clip-rule="evenodd" d="M12.0567 19.0178C11.5597 19.0178 11.1567 18.6149 11.1567 18.1178L11.1567 15.4512C11.1567 14.9541 11.5597 14.5512 12.0567 14.5512C12.5538 14.5512 12.9567 14.9541 12.9567 15.4512L12.9567 18.1178C12.9567 18.6149 12.5538 19.0178 12.0567 19.0178Z" fill="black" fill-opacity="0.2"/>
<path fill-rule="evenodd" clip-rule="evenodd" d="M10.0283 3.71343C9.52081 4.14596 9.15693 4.80449 9.15693 5.76144V10.7842C9.15693 11.2813 8.75399 11.6842 8.25693 11.6842C7.75988 11.6842 7.35693 11.2813 7.35693 10.7842V5.76144C7.35693 4.28907 7.94306 3.12564 8.86061 2.34354C9.75887 1.57788 10.9251 1.21752 12.0569 1.21753C13.1888 1.21754 14.355 1.57794 15.2533 2.3436C16.1708 3.1257 16.7569 4.28913 16.7569 5.76148V10.7842C16.7569 11.2813 16.354 11.6842 15.8569 11.6842C15.3599 11.6842 14.9569 11.2813 14.9569 10.7842V5.76148C14.9569 4.80456 14.5931 4.14603 14.0856 3.71348C13.5589 3.26449 12.8251 3.01754 12.0569 3.01753C11.2888 3.01752 10.555 3.26445 10.0283 3.71343Z" fill="black" fill-opacity="0.2"/>
</svg>
