<svg width="25" height="25" viewBox="0 0 25 25" fill="none" xmlns="http://www.w3.org/2000/svg">
<path fill-rule="evenodd" clip-rule="evenodd" d="M5.12207 11.7192C5.12207 8.41024 7.81307 5.71924 11.1221 5.71924C14.4311 5.71924 17.1221 8.41024 17.1221 11.7192C17.1221 15.0282 14.4311 17.7192 11.1221 17.7192C7.81307 17.7192 5.12207 15.0282 5.12207 11.7192ZM20.8291 20.0122L17.4341 16.6162C18.4871 15.2622 19.1221 13.5652 19.1221 11.7192C19.1221 7.30824 15.5331 3.71924 11.1221 3.71924C6.71107 3.71924 3.12207 7.30824 3.12207 11.7192C3.12207 16.1302 6.71107 19.7192 11.1221 19.7192C12.9681 19.7192 14.6651 19.0842 16.0191 18.0312L19.4151 21.4262C19.6101 21.6212 19.8661 21.7192 20.1221 21.7192C20.3781 21.7192 20.6341 21.6212 20.8291 21.4262C21.2201 21.0352 21.2201 20.4032 20.8291 20.0122Z" fill="#7B7B7B"/>
<mask id="mask0_4_1697" style="mask-type:alpha" maskUnits="userSpaceOnUse" x="3" y="3" width="19" height="19">
<path fill-rule="evenodd" clip-rule="evenodd" d="M5.12207 11.7192C5.12207 8.41024 7.81307 5.71924 11.1221 5.71924C14.4311 5.71924 17.1221 8.41024 17.1221 11.7192C17.1221 15.0282 14.4311 17.7192 11.1221 17.7192C7.81307 17.7192 5.12207 15.0282 5.12207 11.7192ZM20.8291 20.0122L17.4341 16.6162C18.4871 15.2622 19.1221 13.5652 19.1221 11.7192C19.1221 7.30824 15.5331 3.71924 11.1221 3.71924C6.71107 3.71924 3.12207 7.30824 3.12207 11.7192C3.12207 16.1302 6.71107 19.7192 11.1221 19.7192C12.9681 19.7192 14.6651 19.0842 16.0191 18.0312L19.4151 21.4262C19.6101 21.6212 19.8661 21.7192 20.1221 21.7192C20.3781 21.7192 20.6341 21.6212 20.8291 21.4262C21.2201 21.0352 21.2201 20.4032 20.8291 20.0122Z" fill="white"/>
</mask>
<g mask="url(#mask0_4_1697)">
<rect x="0.12207" y="0.719238" width="24" height="24" fill="#7B7B7B"/>
</g>
</svg>
