<svg width="20" height="20" viewBox="0 0 20 20" fill="none" xmlns="http://www.w3.org/2000/svg">
<path d="M4.68734 3.54167C4.16243 3.54167 3.65902 3.75019 3.28786 4.12135C2.91669 4.49252 2.70817 4.99593 2.70817 5.52083V11.9792C2.70817 12.5041 2.91669 13.0075 3.28786 13.3786C3.65902 13.7498 4.16243 13.9583 4.68734 13.9583H6.0415V17.2242L10.6678 13.9583H15.3123C15.8372 13.9583 16.3407 13.7498 16.7118 13.3786C17.083 13.0075 17.2915 12.5041 17.2915 11.9792V5.52083C17.2915 4.99593 17.083 4.49252 16.7118 4.12135C16.3407 3.75019 15.8372 3.54167 15.3123 3.54167H4.68734ZM1.6665 5.52083C1.6665 4.71966 1.98477 3.9513 2.55129 3.38478C3.1178 2.81827 3.88616 2.5 4.68734 2.5H15.3123C16.1135 2.5 16.8819 2.81827 17.4484 3.38478C18.0149 3.9513 18.3332 4.71966 18.3332 5.52083V11.9792C18.3332 12.7803 18.0149 13.5487 17.4484 14.1152C16.8819 14.6817 16.1135 15 15.3123 15H10.9986L6.47775 18.1908C5.85692 18.6292 4.99984 18.185 4.99984 17.425V15H4.68734C3.88616 15 3.1178 14.6817 2.55129 14.1152C1.98477 13.5487 1.6665 12.7803 1.6665 11.9792V5.52083Z" fill="black"/>
</svg>
