<svg width="20" height="20" viewBox="0 0 20 20" fill="none" xmlns="http://www.w3.org/2000/svg">
<path d="M16.2501 3.33341H13.7501V2.08341C13.7501 1.97291 13.7062 1.86693 13.628 1.78879C13.5499 1.71065 13.4439 1.66675 13.3334 1.66675C13.2229 1.66675 13.1169 1.71065 13.0388 1.78879C12.9606 1.86693 12.9167 1.97291 12.9167 2.08341V3.33341H7.08342V2.08341C7.08342 1.97291 7.03952 1.86693 6.96138 1.78879C6.88324 1.71065 6.77726 1.66675 6.66675 1.66675C6.55624 1.66675 6.45026 1.71065 6.37212 1.78879C6.29398 1.86693 6.25008 1.97291 6.25008 2.08341V3.33341H3.75008C3.19775 3.33408 2.66823 3.55378 2.27767 3.94434C1.88712 4.3349 1.66741 4.86442 1.66675 5.41675V16.2501C1.66741 16.8024 1.88712 17.3319 2.27767 17.7225C2.66823 18.113 3.19775 18.3328 3.75008 18.3334H16.2501C16.8025 18.333 17.3321 18.1133 17.7227 17.7227C18.1133 17.3321 18.333 16.8025 18.3334 16.2501V5.41675C18.333 4.86435 18.1133 4.3347 17.7227 3.9441C17.3321 3.55349 16.8025 3.33386 16.2501 3.33341ZM17.5001 16.2501C17.5001 16.9401 16.9401 17.5001 16.2501 17.5001H3.75008C3.05841 17.5001 2.50008 16.9401 2.50008 16.2501V9.16675H17.5001V16.2501ZM17.5001 8.33342H2.50008V5.41675C2.50008 4.72675 3.05841 4.16675 3.75008 4.16675H6.25008V5.41675C6.25008 5.52726 6.29398 5.63324 6.37212 5.71138C6.45026 5.78952 6.55624 5.83342 6.66675 5.83342C6.77726 5.83342 6.88324 5.78952 6.96138 5.71138C7.03952 5.63324 7.08342 5.52726 7.08342 5.41675V4.16675H12.9167V5.41675C12.9167 5.52726 12.9606 5.63324 13.0388 5.71138C13.1169 5.78952 13.2229 5.83342 13.3334 5.83342C13.4439 5.83342 13.5499 5.78952 13.628 5.71138C13.7062 5.63324 13.7501 5.52726 13.7501 5.41675V4.16675H16.2501C16.9401 4.16675 17.5001 4.72675 17.5001 5.41675V8.33342Z" fill="black"/>
</svg>
