<svg width="20" height="20" viewBox="0 0 20 20" fill="none" xmlns="http://www.w3.org/2000/svg">
<path d="M10.0002 2.38086C10.7579 2.38086 11.4846 2.68188 12.0205 3.2177C12.5563 3.75352 12.8573 4.48024 12.8573 5.238V7.14276C12.8573 7.90053 12.5563 8.62725 12.0205 9.16307C11.4846 9.69889 10.7579 9.99991 10.0002 9.99991C9.2424 9.99991 8.51567 9.69889 7.97986 9.16307C7.44404 8.62725 7.14302 7.90053 7.14302 7.14276V5.238C7.14302 4.48024 7.44404 3.75352 7.97986 3.2177C8.51567 2.68188 9.2424 2.38086 10.0002 2.38086V2.38086ZM16.6668 15.7142V15.0209C16.6668 11.9856 13.1564 9.99991 10.0002 9.99991C6.84397 9.99991 3.3335 11.9856 3.3335 15.0209V15.7142C3.3335 15.9668 3.43384 16.209 3.61244 16.3876C3.79105 16.5662 4.03329 16.6666 4.28588 16.6666H15.7144C15.967 16.6666 16.2093 16.5662 16.3879 16.3876C16.5665 16.209 16.6668 15.9668 16.6668 15.7142Z" stroke="black" stroke-linecap="round" stroke-linejoin="round"/>
</svg>
